Coordinates
version=1
nRows=29
nColumns=22
inDegrees=yes

Units are S.I. units (second, meters, Newtons, ...)
If the header above contains a line with 'inDegrees', this indicates whether rotational values are in degrees (yes) or radians (no).

endheader
time	pelvis_tilt	pelvis_list	pelvis_rotation	pelvis_tx	pelvis_ty	pelvis_tz	hip_flexion_r	hip_adduction_r	hip_rotation_r	knee_angle_r	ankle_angle_r	subtalar_angle_r	hip_flexion_l	hip_adduction_l	hip_rotation_l	knee_angle_l	ankle_angle_l	subtalar_angle_l	lumbar_extension	lumbar_bending	lumbar_rotation
      2.62000000	      5.31680164	     -5.86255763	      3.74706488	     -0.71437940	      0.92658652	     -0.58425099	      4.34629575	     16.65704276	    -12.87137791	    -18.61451043	     11.09044588	    -10.93605081	     12.74480355	    -13.65741881	      6.81812232	    -65.78744413	      9.74521818	    -12.71433629	    -12.89661038	      8.30578594	    -14.01098269
      2.63000000	      5.30339201	     -5.69338636	      2.65772913	     -0.70555340	      0.92776547	     -0.58072771	      3.13937401	     16.77448620	    -11.67814361	    -17.88182354	     11.12329161	    -10.87491946	     14.24366559	    -13.47050299	      6.55893817	    -65.34560462	     11.40270918	    -14.94749644	    -13.08870771	      7.86660155	    -13.41100486
      2.64000000	      5.30549422	     -5.52234712	      1.56700512	     -0.69682278	      0.92884088	     -0.57728231	      1.94989877	     16.83777428	    -10.47740749	    -17.20917582	     11.17591347	    -10.76527171	     15.63543189	    -13.25166804	      6.29661706	    -64.63438171	     12.88230822	    -16.98064303	    -13.29888391	      7.45190863	    -12.83829657
      2.65000000	      5.32441710	     -5.36377522	      0.48441845	     -0.68815542	      0.92978391	     -0.57392568	      0.77749596	     16.86365962	     -9.28868797	    -16.59211428	     11.26751053	    -10.60339970	     16.91805589	    -13.02298378	      6.02514091	    -63.66410561	     14.17397190	    -18.76374907	    -13.52592197	      7.07915908	    -12.28926569
      2.66000000	      5.35996405	     -5.22668765	     -0.58471378	     -0.67951378	      0.93057377	     -0.57065706	     -0.38416260	     16.86476972	     -8.11696932	    -16.01874337	     11.40293903	    -10.40331416	     18.08794133	    -12.79716128	      5.73761999	    -62.44428126	     15.26829228	    -20.26433089	    -13.76438769	      6.75691025	    -11.77361944
      2.67000000	      5.41206701	     -5.11681371	     -1.64215413	     -0.67086278	      0.93119431	     -0.56745879	     -1.54609481	     16.85162076	     -6.94953584	    -15.47476817	     11.56751484	    -10.19711080	     19.14101812	    -12.59247847	      5.40374771	    -60.98488345	     16.14665351	    -21.46230351	    -14.00929760	      6.48892165	    -11.29867116
      2.68000000	      5.47351995	     -5.04427056	     -2.68675213	     -0.66218563	      0.93161082	     -0.56433226	     -2.69790674	     16.83569061	     -5.79065926	    -14.97179334	     11.76642446	    -10.01909648	     20.08133516	    -12.41569265	      5.02513080	    -59.29870941	     16.84732998	    -22.34245851	    -14.25154778	      6.28439210	    -10.84465358
      2.69000000	      5.54323064	     -5.00604093	     -3.72466508	     -0.65346719	      0.93182332	     -0.56126014	     -3.84973933	     16.81639859	     -4.61692914	    -14.49614298	     11.96410151	     -9.89591451	     20.90471197	    -12.27148625	      4.57101942	    -57.39601484	     17.34593386	    -22.88887581	    -14.48830912	      6.13821589	    -10.40144098
      2.70000000	      5.54175956	     -5.02433425	     -4.77323284	     -0.64469792	      0.93165790	     -0.55817405	     -4.89445821	     16.82504888	     -3.44655764	    -14.10265678	     12.26728323	     -9.81366867	     21.70843182	    -12.21408579	      3.99415654	    -55.31794870	     17.71839002	    -23.08430622	    -14.62495886	      6.07412372	     -9.96272364
      2.71000000	      5.68545090	     -5.03557474	     -5.79316642	     -0.63577347	      0.93157694	     -0.55515726	     -6.13569353	     16.77284612	     -2.29012411	    -13.65797948	     12.46569252	     -9.77806902	     22.19837140	    -12.12793670	      3.28135354	    -52.98678578	     17.91152043	    -23.16168837	    -14.90158212	      6.00726295	     -9.59872729
      2.72000000	      5.75844032	     -5.09050940	     -6.83048369	     -0.62680066	      0.93115131	     -0.55208888	     -7.27140458	     16.73640359	     -1.12736253	    -13.29962905	     12.73844714	     -9.76607022	     22.66210352	    -12.11587437	      2.39148542	    -50.50818808	     17.91925558	    -22.85163771	    -15.08235623	      6.00169772	     -9.21922470
      2.73000000	      5.84243415	     -5.15947648	     -7.86253231	     -0.61774012	      0.93056208	     -0.54901146	     -8.41138517	     16.67509175	      0.02139870	    -12.98033614	     13.03096238	     -9.77582050	     22.99093479	    -12.11672712	      1.32488364	    -47.86659531	     17.70849880	    -22.09962412	    -15.25790256	      6.01882702	     -8.83706020
      2.74000000	      5.88740742	     -5.22958034	     -8.88556893	     -0.60862061	      0.92973579	     -0.54590907	     -9.46839804	     16.58556017	      1.10135540	    -12.74931632	     13.36756571	     -9.79430442	     23.25776886	    -12.12274273	      0.05723157	    -45.09983938	     17.18939939	    -20.80883224	    -15.37391346	      6.04747250	     -8.46255852
      2.75000000	      5.93734298	     -5.30338750	     -9.90212806	     -0.59941263	      0.92876493	     -0.54279874	    -10.49948436	     16.46446869	      2.13164565	    -12.59256683	     13.72337136	     -9.79636219	     23.40318114	    -12.11895938	     -1.43423599	    -42.22456148	     16.51578649	    -19.21709068	    -15.48103068	      6.09065082	     -8.10288951
      2.76000000	      6.02701915	     -5.35681392	    -10.90838056	     -0.59009039	      0.92773836	     -0.53969008	    -11.54755441	     16.28148959	      3.12486679	    -12.48787747	     14.10451406	     -9.77839193	     23.37871262	    -12.04906229	     -3.13429078	    -39.24196332	     15.73771001	    -17.41582430	    -15.61633214	      6.10987733	     -7.75335397
      2.77000000	      6.08245617	     -5.38945898	    -11.88121802	     -0.58071246	      0.92652540	     -0.53662377	    -12.46366941	     16.05568800	      3.91709284	    -12.53643807	     14.50815057	     -9.75126059	     23.31739846	    -11.90767958	     -4.98975714	    -36.23555224	     14.66744868	    -15.06608804	    -15.70064300	      6.12355052	     -7.42818430
      2.78000000	      6.16558205	     -5.39215651	    -12.83309260	     -0.57118122	      0.92525319	     -0.53363183	    -13.36621316	     15.76200550	      4.61573870	    -12.65150979	     14.96266683	     -9.68679049	     23.13042163	    -11.64090721	     -6.92755390	    -33.21060044	     13.63049094	    -12.62947562	    -15.79364778	      6.11612681	     -7.10511686
      2.79000000	      6.26064871	     -5.36402141	    -13.75254836	     -0.56153601	      0.92390340	     -0.53069789	    -14.21931825	     15.41353321	      5.18474225	    -12.85165490	     15.43979627	     -9.58186891	     22.86811664	    -11.23476209	     -8.82834985	    -30.22935875	     12.64587760	    -10.10908598	    -15.88227121	      6.08531075	     -6.82497228
      2.80000000	      6.39636033	     -5.30835491	    -14.63829807	     -0.55174558	      0.92253012	     -0.52785284	    -15.07029196	     15.00573208	      5.65786573	    -13.11127032	     15.98130324	     -9.43570497	     22.51127109	    -10.66327263	    -10.51293772	    -27.33080330	     11.88943495	     -7.78573933	    -15.99720619	      6.02984715	     -6.56088985
      2.81000000	      6.49374637	     -5.24186490	    -15.47595570	     -0.54188519	      0.92102243	     -0.52504746	    -15.80795503	     14.59305233	      5.98096084	    -13.47410065	     16.47919325	     -9.25209269	     22.19960364	     -9.98261234	    -11.83378914	    -24.62222851	     11.27660303	     -5.56252626	    -16.06437165	      5.98026219	     -6.33567776
      2.82000000	      6.56157192	     -5.15491396	    -16.26836331	     -0.53189132	      0.91941975	     -0.52223352	    -16.47826564	     14.16962267	      6.22975904	    -13.88023554	     16.88389995	     -9.03079217	     21.93898022	     -9.21306613	    -12.71852762	    -22.17929306	     10.89876575	     -3.58916437	    -16.07535219	      5.92485270	     -6.19066469
      2.83000000	      6.65857489	     -5.07019982	    -17.03222295	     -0.52179007	      0.91785432	     -0.51936143	    -17.15230839	     13.73693496	      6.40930107	    -14.32952506	     17.27919905	     -8.79707625	     21.65161771	     -8.38891806	    -13.05929299	    -20.03614053	     10.78719993	     -2.07720685	    -16.11458826	      5.85779300	     -6.03624285
      2.84000000	      6.74557112	     -4.97024934	    -17.76600926	     -0.51154833	      0.91629753	     -0.51634973	    -17.79199075	     13.29946886	      6.56120927	    -14.81403879	     17.57203230	     -8.54129208	     21.40479739	     -7.55699141	    -12.93063806	    -18.28803280	     10.84057598	     -0.91083142	    -16.11751161	      5.76420260	     -5.92458753
      2.85000000	      6.81686645	     -4.83842481	    -18.47069098	     -0.50118055	      0.91475871	     -0.51317254	    -18.37557632	     12.84746166	      6.71031168	    -15.35264241	     17.82126471	     -8.30849743	     21.22499771	     -6.73138580	    -12.35844198	    -17.00638987	     10.98197949	     -0.19585069	    -16.07658852	      5.62421511	     -5.88034876
      2.86000000	      6.90265863	     -4.71978364	    -19.15046195	     -0.49064578	      0.91336665	     -0.50979524	    -18.98705110	     12.40770839	      6.87417569	    -15.87118781	     17.87298551	     -8.03040786	     21.05338074	     -5.96785690	    -11.41478240	    -16.19875709	     11.13513358	      0.31492960	    -16.03337240	      5.47564333	     -5.83590917
      2.87000000	      6.98743588	     -4.57437827	    -19.82242591	     -0.47997576	      0.91209398	     -0.50619782	    -19.55084288	     11.94741266	      7.06764401	    -16.45720454	     17.79294499	     -7.70607868	     20.93610924	     -5.24407922	    -10.18815988	    -15.91142351	     11.22021228	      0.54069407	    -15.96124228	      5.27415501	     -5.78993790
      2.88000000	      7.07556084	     -4.39554012	    -20.47330836	     -0.46915264	      0.91097537	     -0.50239492	    -20.06621150	     11.46008325	      7.25639802	    -17.10330461	     17.59509438	     -7.27807810	     20.86912800	     -4.53902794	     -8.72203786	    -16.11557237	     11.16829047	      0.42913890	    -15.85637715	      5.01073484	     -5.76250871
      2.89000000	      7.13267881	     -4.18857956	    -21.08500325	     -0.45817518	      0.90996792	     -0.49844484	    -20.48816861	     10.97288596	      7.46272718	    -17.82693844	     17.26993845	     -6.85066694	     20.89857844	     -3.85149957	     -7.05194495	    -16.77914924	     10.91688544	     -0.01144794	    -15.68444582	      4.72046343	     -5.77802861
      2.90000000	      7.16416712	     -3.94571493	    -21.68524622	     -0.44703201	      0.90910864	     -0.49430857	    -20.81963181	     10.47409564	      7.74630041	    -18.62908043	     16.80478813	     -6.33037668	     21.00407366	     -3.17008151	     -5.31186142	    -17.82355419	     10.47838604	     -0.81622441	    -15.44452741	      4.38965175	     -5.81716674
